<svg version="1.1" id="svg108" xml:space="preserve" width="300" height="300" viewBox="0 0 682.66669 682.66669" xmlns="http://www.w3.org/2000/svg" xmlns:svg="http://www.w3.org/2000/svg" xmlns:xlink="http://www.w3.org/1999/xlink" xmlns:svgjs="http://svgjs.dev/svgjs"><g width="100%" height="100%" transform="matrix(1,0,0,1,0,0)"><defs id="defs112"><clipPath clipPathUnits="userSpaceOnUse" id="clipPath122"><path d="M 0,512 H 512 V 0 H 0 Z" id="path120" fill="#ffffff" fill-opacity="1" data-original-color="#000000ff" stroke="none" stroke-opacity="1"/></clipPath></defs><g id="g114" transform="matrix(1.3333333,0,0,-1.3333333,0,682.66667)"><g id="g116"><g id="g118" clip-path="url(#clipPath122)"><g id="g124" transform="translate(349.5386,167)"><path d="m 0,0 h 86.461 v -152 h -360 V 0 h 86.462" style="stroke-linecap: round; stroke-linejoin: round; stroke-miterlimit: 10; stroke-dasharray: none;" id="path126" fill="none" fill-opacity="1" stroke="#ffffff" stroke-opacity="1" data-original-stroke-color="#000000ff" stroke-width="30" data-original-stroke-width="30"/></g><g id="g128" transform="translate(373.1729,262.7935)"><path d="m 0,0 c -6.522,24.014 -25.858,43.669 -49.691,50.826 -2.547,0.766 -4.974,0.806 -7.482,1.306 V 24.207 c 0,-33.138 -26.863,-60 -60,-60 -33.137,0 -60,26.862 -60,60 v 27.925 c -2.51,-0.5 -4.938,-0.542 -7.487,-1.308 -23.831,-7.159 -43.165,-26.812 -49.686,-50.824 -6.2,-22.835 -1.796,-44.408 9.25,-61.3 11.552,-17.665 20.164,-37.69 18.195,-58.705 -3.348,-35.739 24.681,-65.788 59.728,-65.788 v 60 c 0,16.569 13.431,30 30,30 16.569,0 30,-13.431 30,-30 v -60 c 35.047,0 63.076,30.049 59.728,65.788 -1.969,21.015 6.644,41.04 18.195,58.705 C 1.796,-44.408 6.2,-22.835 0,0 Z" style="stroke-linecap: round; stroke-linejoin: round; stroke-miterlimit: 10; stroke-dasharray: none;" id="path130" fill="none" fill-opacity="1" stroke="#ffffff" stroke-opacity="1" data-original-stroke-color="#000000ff" stroke-width="30" data-original-stroke-width="30"/></g><g id="g132" transform="translate(316,437)"><path d="m 0,0 v 58.435 c -22.769,4.532 -43.841,-1.053 -60,-13.264 -16.159,12.213 -37.229,17.797 -60,13.264 V 0 c 0,-33.137 26.863,-60 60,-60 33.137,0 60,26.863 60,60 z" style="stroke-linecap: round; stroke-linejoin: round; stroke-miterlimit: 10; stroke-dasharray: none;" id="path134" fill="none" fill-opacity="1" stroke="#ffffff" stroke-opacity="1" data-original-stroke-color="#000000ff" stroke-width="30" data-original-stroke-width="30"/></g><g id="g136" transform="translate(76,377)"><path d="M 0,0 30,-30 60,0" style="stroke-linecap: round; stroke-linejoin: round; stroke-miterlimit: 10; stroke-dasharray: none;" id="path138" fill="none" fill-opacity="1" stroke="#ffffff" stroke-opacity="1" data-original-stroke-color="#000000ff" stroke-width="30" data-original-stroke-width="30"/></g><g id="g140" transform="translate(106,407)"><path d="M 0,0 V -60" style="stroke-linecap: round; stroke-linejoin: round; stroke-miterlimit: 10; stroke-dasharray: none;" id="path142" fill="none" fill-opacity="1" stroke="#ffffff" stroke-opacity="1" data-original-stroke-color="#000000ff" stroke-width="30" data-original-stroke-width="30"/></g><g id="g144" transform="translate(376,377)"><path d="M 0,0 30,-30 60,0" style="stroke-linecap: round; stroke-linejoin: round; stroke-miterlimit: 10; stroke-dasharray: none;" id="path146" fill="none" fill-opacity="1" stroke="#ffffff" stroke-opacity="1" data-original-stroke-color="#000000ff" stroke-width="30" data-original-stroke-width="30"/></g><g id="g148" transform="translate(406,407)"><path d="M 0,0 V -60" style="stroke-linecap: round; stroke-linejoin: round; stroke-miterlimit: 10; stroke-dasharray: none;" id="path150" fill="none" fill-opacity="1" stroke="#ffffff" stroke-opacity="1" data-original-stroke-color="#000000ff" stroke-width="30" data-original-stroke-width="30"/></g></g></g></g></g></svg>