<svg height="511pt" viewBox="0 0 511 511.99959" width="511pt" xmlns="http://www.w3.org/2000/svg"><path d="m270.664062 130.113281c-8.738281 5.070313-19.597656 5.070313-28.332031.003907-60.878906-35.347657-129.941406 30.945312-101.667969 96.976562 7.515626 17.574219 10.863282 36.359375 9.683594 54.328125-2.910156 44.375 17.359375 85.734375 52.902344 107.9375 4.65625 2.910156 7.460938 2.277344 22.390625 2.277344 8.285156 0 15-6.714844 15-14.996094v-61.113281c0-8.113282 6.851563-14.847656 15.269531-15.015625 8.84375-.15625 15.933594 6.992187 15.933594 15.511719v60.53125c0 8.285156 6.71875 15 15 15 17.152344 0 19.753906.640624 24.480469-2.472657 16.222656-10.675781 29.570312-26.128906 38.601562-44.683593 9.238281-18.984376 13.484375-40.375 12.28125-61.886719-1.070312-18.769531 2.320313-37.675781 9.804688-54.675781 29.269531-66.523438-40.488281-133.058594-101.347657-97.722657zm73.890626 85.636719c-9.386719 21.3125-13.640626 44.992188-12.300782 68.457031 1.628906 29.121094-10.125 57.433594-30.410156 74.570313v-42.753906c0-25.328126-20.863281-45.992188-46.527344-45.503907-24.632812.484375-44.675781 20.675781-44.675781 45.007813v42.25c-20.828125-17.273438-32.296875-44.863282-30.359375-74.390625 1.488281-22.652344-2.671875-46.195313-12.035156-68.09375-16.847656-39.351563 22.890625-80.210938 59.027344-59.230469 18.023437 10.457031 40.421874 10.457031 58.453124-.003906 36.355469-21.113282 76.160157 20.300781 58.828126 59.691406zm0 0"/><path d="m256.5 30c53.488281 0 104.921875 19.054688 145.378906 53.101562l-31.664062 1.601563c-8.273438.417969-14.640625 7.464844-14.222656 15.738281.421874 8.3125 7.523437 14.660156 15.738281 14.222656l64.269531-3.257812c8.78125.582031 16.554688-6.703125 16.09375-15.832031l-3.347656-66.183594c-.417969-8.273437-7.464844-14.644531-15.742188-14.222656-8.273437.417969-14.640625 7.464843-14.222656 15.738281l1.4375 28.421875c-45.675781-38.050781-103.550781-59.328125-163.71875-59.328125-174.496094 0-296.9375 170.765625-243.246094 335.464844 2.566406 7.875 11.03125 12.175781 18.910156 9.609375 7.875-2.566407 12.179688-11.03125 9.613282-18.90625-47.570313-145.933594 60.929687-296.167969 214.722656-296.167969zm0 0"/><path d="m499.726562 176.449219c-2.570312-7.875-11.039062-12.175781-18.914062-9.609375-7.875 2.570312-12.175781 11.035156-9.609375 18.910156 22.710937 69.636719 11.023437 143.628906-32.066406 203-79.269531 109.226562-230.296875 122.355469-328.015625 40.125l31.667968-1.601562c8.273438-.421876 14.640626-7.464844 14.21875-15.742188-.417968-8.269531-7.484374-14.640625-15.738281-14.21875l-64.277343 3.253906c-8.816407-.578125-16.542969 6.742188-16.082032 15.832032l3.347656 66.1875c.40625 8.015624 7.03125 14.242187 14.96875 14.242187 8.632813 0 15.421876-7.21875 14.992188-15.757813l-1.4375-28.421874c112.160156 93.429687 282.269531 75.480468 370.636719-46.277344 46.796875-64.484375 62.808593-148.667969 36.308593-229.921875zm0 0"/></svg>