<svg xmlns="http://www.w3.org/2000/svg" xmlns:svg="http://www.w3.org/2000/svg" version="1.1" id="svg282" width="300" height="300" viewBox="0 0 682.66669 682.66669" xmlns:xlink="http://www.w3.org/1999/xlink" xmlns:svgjs="http://svgjs.dev/svgjs"><g width="100%" height="100%" transform="matrix(1,0,0,1,0,0)"><defs id="defs286">
    <clipPath clipPathUnits="userSpaceOnUse" id="clipPath296">
      <path d="M 0,512 H 512 V 0 H 0 Z" id="path294" fill="#fffefe" fill-opacity="1" data-original-color="#000000ff" stroke="none" stroke-opacity="1"/>
    </clipPath>
  </defs><mask id="custom"><rect id="bg" x="0" y="0" width="100%" height="100%" fill="white"/><g transform="matrix(1.3333333,0,0,-1.3333333,0,682.66667)"/></mask><g mask="url(#custom)"><g id="g288" transform="matrix(1.3333333,0,0,-1.3333333,0,682.66667)">
    <g id="g290">
      <g id="g292" clip-path="url(#clipPath296)">
        <g id="g298" transform="translate(441,370.792)">
          <path d="m 0,0 c 7.615,-15.238 11.884,-32.336 11.884,-50.4 0,-31.808 -13.241,-60.619 -34.674,-81.556 0.366,-7.746 0.557,-15.634 0.557,-23.638 0,-105.596 -32.778,-191.198 -73.209,-191.198 -29.143,0 -43.358,25.588 -48.595,56.552 -12.759,75.434 -23.974,125.771 -40.963,125.771 -16.989,0 -30.598,-49.969 -40.963,-125.766 -5.425,-39.668 -23.45,-56.557 -48.595,-56.557 -38.603,0 -70.229,78.035 -73.01,177" style="stroke-linecap: round; stroke-linejoin: round; stroke-miterlimit: 22.926; stroke-dasharray: none;" id="path300" fill="none" fill-opacity="1" stroke="#fffefe" stroke-opacity="1" data-original-stroke-color="#000000ff" stroke-width="30" data-original-stroke-width="30"/>
        </g>
        <g id="g302" transform="translate(67,278.9497)">
          <path d="m 0,0 c -5.094,12.868 -7.885,26.839 -7.885,41.442 0,63.986 53.567,115.856 119.646,115.856 29.443,0 56.396,-10.304 77.239,-27.383 20.843,17.079 47.796,27.383 77.239,27.383 15.067,0 29.483,-2.696 42.761,-7.618" style="stroke-linecap: round; stroke-linejoin: round; stroke-miterlimit: 22.926; stroke-dasharray: none;" id="path304" fill="none" fill-opacity="1" stroke="#fffefe" stroke-opacity="1" data-original-stroke-color="#000000ff" stroke-width="30" data-original-stroke-width="30"/>
        </g>
        <g id="g306" transform="translate(73.5264,291)">
          <path d="m 0,0 24.526,-38 34,-20.526 -38.001,-24.526 -20.525,-34 -24.526,38 -34,20.526 38,24.526 z" style="stroke-linecap: round; stroke-linejoin: round; stroke-miterlimit: 22.926; stroke-dasharray: none;" id="path308" fill="none" fill-opacity="1" stroke="#fffefe" stroke-opacity="1" data-original-stroke-color="#000000ff" stroke-width="30" data-original-stroke-width="30"/>
        </g>
        <g id="g310" transform="translate(411.5,488)">
          <path d="M 0,0 28.075,-58.702 85.5,-85.5 26.798,-113.575 0,-171 -28.074,-112.298 -85.5,-85.5 l 58.702,28.075 z" style="stroke-linecap: round; stroke-linejoin: round; stroke-miterlimit: 22.926; stroke-dasharray: none;" id="path312" fill="none" fill-opacity="1" stroke="#fffefe" stroke-opacity="1" data-original-stroke-color="#000000ff" stroke-width="30" data-original-stroke-width="30"/>
        </g>
      </g>
    </g>
  </g></g></g></svg>